<?xml version="1.0" standalone="no"?>
<!DOCTYPE svg PUBLIC "-//W3C//DTD SVG 20010904//EN"
 "http://www.w3.org/TR/2001/REC-SVG-20010904/DTD/svg10.dtd">
<svg version="1.0" xmlns="http://www.w3.org/2000/svg"
 width="736.000000pt" height="614.000000pt" viewBox="0 0 736.000000 614.000000"
 preserveAspectRatio="xMidYMid meet">
<metadata>
Created by potrace 1.13, written by Peter Selinger 2001-2015
</metadata>
<g transform="translate(0.000000,614.000000) scale(0.100000,-0.100000)"
fill="#000000" stroke="none">
<path d="M3555 4978 c-759 -77 -1401 -635 -1581 -1373 -204 -839 198 -1699
971 -2075 217 -105 424 -161 671 -179 409 -31 837 87 1176 325 654 461 932
1303 681 2063 -268 809 -1067 1326 -1918 1239z m343 -198 c284 -30 565 -135
792 -297 120 -87 286 -253 373 -373 82 -116 185 -321 227 -454 95 -302 98
-648 9 -948 -193 -648 -768 -1111 -1441 -1157 -746 -52 -1425 405 -1657 1116
-61 186 -76 288 -76 503 1 195 13 284 60 445 112 387 357 710 703 928 294 185
668 273 1010 237z"/>
<path d="M3684 2500 c-38 -15 -101 -99 -127 -168 l-25 -67 -83 -7 c-141 -11
-158 -22 -283 -187 -22 -29 39 0 70 34 55 59 86 69 228 75 l128 5 42 85 c48
99 67 113 144 106 64 -6 124 -48 192 -132 49 -62 74 -68 142 -33 22 11 65 23
94 26 69 7 129 -21 238 -112 43 -36 81 -65 83 -65 14 0 -60 112 -101 153 -102
102 -179 131 -271 103 -80 -25 -90 -22 -135 38 -47 64 -85 95 -160 130 -56 26
-133 34 -176 16z"/>
</g>
</svg>
